<<<<<<< HEAD
<mxfile host="app.diagrams.net" modified="2022-10-18T19:42:56.145Z" agent="5.0 (Windows NT 10.0; Win64; x64) AppleWebKit/537.36 (KHTML, like Gecko) Chrome/106.0.0.0 Safari/537.36" etag="qjAeX1liTnFOhNk3u9Jg" version="20.4.1" type="github">
  <diagram id="R2lEEEUBdFMjLlhIrx00" name="Page-1">
    <mxGraphModel dx="2190" dy="2268" grid="1" gridSize="10" guides="1" tooltips="1" connect="1" arrows="1" fold="1" page="1" pageScale="1" pageWidth="1169" pageHeight="1654" math="0" shadow="0" extFonts="Permanent Marker^https://fonts.googleapis.com/css?family=Permanent+Marker">
      <root>
        <mxCell id="0" />
        <mxCell id="1" parent="0" />
        <mxCell id="C-vyLk0tnHw3VtMMgP7b-2" value="Students" style="shape=table;startSize=40;container=1;collapsible=1;childLayout=tableLayout;fixedRows=1;rowLines=0;fontStyle=1;align=center;resizeLast=1;" parent="1" vertex="1">
          <mxGeometry x="440" y="-120" width="200" height="240" as="geometry" />
        </mxCell>
        <mxCell id="C-vyLk0tnHw3VtMMgP7b-3" value="" style="shape=partialRectangle;collapsible=0;dropTarget=0;pointerEvents=0;fillColor=none;points=[[0,0.5],[1,0.5]];portConstraint=eastwest;top=0;left=0;right=0;bottom=1;" parent="C-vyLk0tnHw3VtMMgP7b-2" vertex="1">
          <mxGeometry y="40" width="200" height="40" as="geometry" />
        </mxCell>
        <mxCell id="C-vyLk0tnHw3VtMMgP7b-4" value="PK" style="shape=partialRectangle;overflow=hidden;connectable=0;fillColor=none;top=0;left=0;bottom=0;right=0;fontStyle=1;" parent="C-vyLk0tnHw3VtMMgP7b-3" vertex="1">
          <mxGeometry width="40" height="40" as="geometry">
            <mxRectangle width="40" height="40" as="alternateBounds" />
          </mxGeometry>
        </mxCell>
        <mxCell id="C-vyLk0tnHw3VtMMgP7b-5" value="Student_id" style="shape=partialRectangle;overflow=hidden;connectable=0;fillColor=none;top=0;left=0;bottom=0;right=0;align=left;spacingLeft=6;fontStyle=1;" parent="C-vyLk0tnHw3VtMMgP7b-3" vertex="1">
          <mxGeometry x="40" width="160" height="40" as="geometry">
            <mxRectangle width="160" height="40" as="alternateBounds" />
          </mxGeometry>
        </mxCell>
        <mxCell id="Tdw0s2S8ryBaGNg4PUL5-23" value="" style="group" parent="1" vertex="1" connectable="0">
          <mxGeometry x="-280" y="-120" width="200" height="240" as="geometry" />
        </mxCell>
        <mxCell id="C-vyLk0tnHw3VtMMgP7b-23" value="Mentors" style="shape=table;startSize=40;container=1;collapsible=1;childLayout=tableLayout;fixedRows=1;rowLines=0;fontStyle=1;align=center;resizeLast=1;" parent="Tdw0s2S8ryBaGNg4PUL5-23" vertex="1">
          <mxGeometry width="200" height="240" as="geometry" />
        </mxCell>
        <mxCell id="C-vyLk0tnHw3VtMMgP7b-24" value="" style="shape=partialRectangle;collapsible=0;dropTarget=0;pointerEvents=0;fillColor=none;points=[[0,0.5],[1,0.5]];portConstraint=eastwest;top=0;left=0;right=0;bottom=1;fontStyle=0" parent="C-vyLk0tnHw3VtMMgP7b-23" vertex="1">
          <mxGeometry y="40" width="200" height="40" as="geometry" />
        </mxCell>
        <mxCell id="C-vyLk0tnHw3VtMMgP7b-25" value="PK" style="shape=partialRectangle;overflow=hidden;connectable=0;fillColor=none;top=0;left=0;bottom=0;right=0;fontStyle=1;" parent="C-vyLk0tnHw3VtMMgP7b-24" vertex="1">
          <mxGeometry width="40" height="40" as="geometry">
            <mxRectangle width="40" height="40" as="alternateBounds" />
          </mxGeometry>
        </mxCell>
        <mxCell id="C-vyLk0tnHw3VtMMgP7b-26" value="Mentor_id," style="shape=partialRectangle;overflow=hidden;connectable=0;fillColor=none;top=0;left=0;bottom=0;right=0;align=left;spacingLeft=6;fontStyle=1;strokeColor=default;" parent="C-vyLk0tnHw3VtMMgP7b-24" vertex="1">
          <mxGeometry x="40" width="160" height="40" as="geometry">
            <mxRectangle width="160" height="40" as="alternateBounds" />
          </mxGeometry>
        </mxCell>
        <mxCell id="Tdw0s2S8ryBaGNg4PUL5-8" value="Full_Name" style="text;html=1;align=center;verticalAlign=middle;resizable=0;points=[];autosize=1;strokeColor=none;fillColor=none;" parent="Tdw0s2S8ryBaGNg4PUL5-23" vertex="1">
          <mxGeometry x="40" y="90" width="80" height="30" as="geometry" />
        </mxCell>
        <mxCell id="Tdw0s2S8ryBaGNg4PUL5-9" value="Email_Address" style="text;html=1;align=center;verticalAlign=middle;resizable=0;points=[];autosize=1;strokeColor=none;fillColor=none;container=1;" parent="Tdw0s2S8ryBaGNg4PUL5-23" vertex="1">
          <mxGeometry x="40" y="130" width="100" height="30" as="geometry" />
        </mxCell>
        <mxCell id="Tdw0s2S8ryBaGNg4PUL5-10" value="Work_ID" style="text;html=1;align=center;verticalAlign=middle;resizable=0;points=[];autosize=1;strokeColor=none;fillColor=none;" parent="Tdw0s2S8ryBaGNg4PUL5-23" vertex="1">
          <mxGeometry x="40" y="170" width="70" height="30" as="geometry" />
        </mxCell>
        <mxCell id="Tdw0s2S8ryBaGNg4PUL5-11" value="Password" style="text;html=1;align=center;verticalAlign=middle;resizable=0;points=[];autosize=1;strokeColor=none;fillColor=none;" parent="Tdw0s2S8ryBaGNg4PUL5-23" vertex="1">
          <mxGeometry x="40" y="210" width="80" height="30" as="geometry" />
        </mxCell>
        <mxCell id="Tdw0s2S8ryBaGNg4PUL5-24" value="" style="group" parent="1" vertex="1" connectable="0">
          <mxGeometry x="80" y="-120" width="200" height="160" as="geometry" />
        </mxCell>
        <mxCell id="C-vyLk0tnHw3VtMMgP7b-13" value="Assessments" style="shape=table;startSize=50;container=1;collapsible=1;childLayout=tableLayout;fixedRows=1;rowLines=0;fontStyle=1;align=center;resizeLast=1;" parent="Tdw0s2S8ryBaGNg4PUL5-24" vertex="1">
          <mxGeometry width="200" height="160" as="geometry" />
        </mxCell>
        <mxCell id="C-vyLk0tnHw3VtMMgP7b-14" value="" style="shape=partialRectangle;collapsible=0;dropTarget=0;pointerEvents=0;fillColor=none;points=[[0,0.5],[1,0.5]];portConstraint=eastwest;top=0;left=0;right=0;bottom=1;" parent="C-vyLk0tnHw3VtMMgP7b-13" vertex="1">
          <mxGeometry y="50" width="200" height="30" as="geometry" />
        </mxCell>
        <mxCell id="C-vyLk0tnHw3VtMMgP7b-15" value="PK" style="shape=partialRectangle;overflow=hidden;connectable=0;fillColor=none;top=0;left=0;bottom=0;right=0;fontStyle=1;" parent="C-vyLk0tnHw3VtMMgP7b-14" vertex="1">
          <mxGeometry width="40" height="30" as="geometry">
            <mxRectangle width="40" height="30" as="alternateBounds" />
          </mxGeometry>
        </mxCell>
        <mxCell id="C-vyLk0tnHw3VtMMgP7b-16" value="Assessment_id" style="shape=partialRectangle;overflow=hidden;connectable=0;fillColor=none;top=0;left=0;bottom=0;right=0;align=left;spacingLeft=6;fontStyle=1;" parent="C-vyLk0tnHw3VtMMgP7b-14" vertex="1">
          <mxGeometry x="40" width="160" height="30" as="geometry">
            <mxRectangle width="160" height="30" as="alternateBounds" />
          </mxGeometry>
        </mxCell>
        <mxCell id="Tdw0s2S8ryBaGNg4PUL5-12" value="Mentor_id" style="text;html=1;align=center;verticalAlign=middle;resizable=0;points=[];autosize=1;strokeColor=none;fillColor=none;fontStyle=1" parent="Tdw0s2S8ryBaGNg4PUL5-24" vertex="1">
          <mxGeometry x="40" y="90" width="80" height="30" as="geometry" />
        </mxCell>
        <mxCell id="Tdw0s2S8ryBaGNg4PUL5-13" value="Assessment_title" style="text;html=1;align=center;verticalAlign=middle;resizable=0;points=[];autosize=1;strokeColor=none;fillColor=none;" parent="Tdw0s2S8ryBaGNg4PUL5-24" vertex="1">
          <mxGeometry x="40" y="130" width="110" height="30" as="geometry" />
        </mxCell>
        <mxCell id="Tdw0s2S8ryBaGNg4PUL5-16" value="&lt;b&gt;FK&lt;/b&gt;" style="text;html=1;align=center;verticalAlign=middle;resizable=0;points=[];autosize=1;strokeColor=none;fillColor=none;" parent="Tdw0s2S8ryBaGNg4PUL5-24" vertex="1">
          <mxGeometry y="90" width="40" height="30" as="geometry" />
        </mxCell>
        <mxCell id="Tdw0s2S8ryBaGNg4PUL5-33" value="" style="group" parent="1" vertex="1" connectable="0">
          <mxGeometry x="440" y="-120" width="200" height="240" as="geometry" />
        </mxCell>
        <mxCell id="Tdw0s2S8ryBaGNg4PUL5-18" value="&lt;br&gt;&lt;div&gt;Full_name&lt;/div&gt;" style="text;html=1;align=center;verticalAlign=middle;resizable=0;points=[];autosize=1;strokeColor=none;fillColor=none;" parent="Tdw0s2S8ryBaGNg4PUL5-33" vertex="1">
          <mxGeometry x="40" y="80" width="80" height="40" as="geometry" />
        </mxCell>
        <mxCell id="Tdw0s2S8ryBaGNg4PUL5-19" value="&lt;br&gt;&lt;div&gt;Email_Address&lt;/div&gt;" style="text;html=1;align=center;verticalAlign=middle;resizable=0;points=[];autosize=1;strokeColor=none;fillColor=none;" parent="Tdw0s2S8ryBaGNg4PUL5-33" vertex="1">
          <mxGeometry x="30" y="120" width="100" height="40" as="geometry" />
        </mxCell>
        <mxCell id="Tdw0s2S8ryBaGNg4PUL5-20" value="&lt;br&gt;&lt;div&gt;Username&lt;/div&gt;" style="text;html=1;align=center;verticalAlign=middle;resizable=0;points=[];autosize=1;strokeColor=none;fillColor=none;" parent="Tdw0s2S8ryBaGNg4PUL5-33" vertex="1">
          <mxGeometry x="40" y="160" width="80" height="40" as="geometry" />
        </mxCell>
        <mxCell id="Tdw0s2S8ryBaGNg4PUL5-21" value="&lt;br&gt;&lt;div&gt;Password&lt;/div&gt;" style="text;html=1;align=center;verticalAlign=middle;resizable=0;points=[];autosize=1;strokeColor=none;fillColor=none;" parent="Tdw0s2S8ryBaGNg4PUL5-33" vertex="1">
          <mxGeometry x="40" y="200" width="80" height="40" as="geometry" />
        </mxCell>
        <mxCell id="Tdw0s2S8ryBaGNg4PUL5-25" value="Students" style="shape=table;startSize=40;container=1;collapsible=1;childLayout=tableLayout;fixedRows=1;rowLines=0;fontStyle=1;align=center;resizeLast=1;" parent="Tdw0s2S8ryBaGNg4PUL5-33" vertex="1">
          <mxGeometry width="200" height="240" as="geometry" />
        </mxCell>
        <mxCell id="Tdw0s2S8ryBaGNg4PUL5-26" value="" style="shape=partialRectangle;collapsible=0;dropTarget=0;pointerEvents=0;fillColor=none;points=[[0,0.5],[1,0.5]];portConstraint=eastwest;top=0;left=0;right=0;bottom=1;" parent="Tdw0s2S8ryBaGNg4PUL5-25" vertex="1">
          <mxGeometry y="40" width="200" height="40" as="geometry" />
        </mxCell>
        <mxCell id="Tdw0s2S8ryBaGNg4PUL5-27" value="PK" style="shape=partialRectangle;overflow=hidden;connectable=0;fillColor=none;top=0;left=0;bottom=0;right=0;fontStyle=1;" parent="Tdw0s2S8ryBaGNg4PUL5-26" vertex="1">
          <mxGeometry width="40" height="40" as="geometry">
            <mxRectangle width="40" height="40" as="alternateBounds" />
          </mxGeometry>
        </mxCell>
        <mxCell id="Tdw0s2S8ryBaGNg4PUL5-28" value="Student_id" style="shape=partialRectangle;overflow=hidden;connectable=0;fillColor=none;top=0;left=0;bottom=0;right=0;align=left;spacingLeft=6;fontStyle=1;" parent="Tdw0s2S8ryBaGNg4PUL5-26" vertex="1">
          <mxGeometry x="40" width="160" height="40" as="geometry">
            <mxRectangle width="160" height="40" as="alternateBounds" />
          </mxGeometry>
        </mxCell>
        <mxCell id="Tdw0s2S8ryBaGNg4PUL5-35" value="Creates" style="shape=rhombus;perimeter=rhombusPerimeter;whiteSpace=wrap;html=1;align=center;strokeColor=default;" parent="1" vertex="1">
          <mxGeometry x="-40" y="-70" width="80" height="60" as="geometry" />
        </mxCell>
        <mxCell id="Tdw0s2S8ryBaGNg4PUL5-36" value="Attempts" style="shape=rhombus;perimeter=rhombusPerimeter;whiteSpace=wrap;html=1;align=center;strokeColor=default;" parent="1" vertex="1">
          <mxGeometry x="320" y="-70" width="80" height="60" as="geometry" />
        </mxCell>
        <mxCell id="Tdw0s2S8ryBaGNg4PUL5-37" value="&lt;div&gt;Selects Questions&lt;/div&gt;&lt;div&gt;Type&lt;br&gt;&lt;/div&gt;" style="shape=rhombus;perimeter=rhombusPerimeter;whiteSpace=wrap;html=1;align=center;strokeColor=default;" parent="1" vertex="1">
          <mxGeometry x="90" y="80" width="140" height="80" as="geometry" />
        </mxCell>
        <mxCell id="Tdw0s2S8ryBaGNg4PUL5-45" value="" style="group" parent="1" vertex="1" connectable="0">
          <mxGeometry x="60" y="600" width="200" height="285" as="geometry" />
        </mxCell>
        <mxCell id="Tdw0s2S8ryBaGNg4PUL5-50" value="&lt;b&gt;Mentor_id&lt;/b&gt;" style="text;html=1;align=center;verticalAlign=middle;resizable=0;points=[];autosize=1;strokeColor=none;fillColor=none;" parent="Tdw0s2S8ryBaGNg4PUL5-45" vertex="1">
          <mxGeometry x="40" y="90" width="80" height="30" as="geometry" />
        </mxCell>
        <mxCell id="Tdw0s2S8ryBaGNg4PUL5-51" value="&lt;b&gt;Assessment_id&lt;/b&gt;" style="text;html=1;align=center;verticalAlign=middle;resizable=0;points=[];autosize=1;strokeColor=none;fillColor=none;container=1;" parent="Tdw0s2S8ryBaGNg4PUL5-45" vertex="1">
          <mxGeometry x="40" y="168.3366666666667" width="110" height="30" as="geometry" />
        </mxCell>
        <mxCell id="Tdw0s2S8ryBaGNg4PUL5-52" value="is_accepted?" style="text;html=1;align=center;verticalAlign=middle;resizable=0;points=[];autosize=1;strokeColor=none;fillColor=none;" parent="Tdw0s2S8ryBaGNg4PUL5-45" vertex="1">
          <mxGeometry x="35" y="210.00333333333333" width="90" height="30" as="geometry" />
        </mxCell>
        <mxCell id="Tdw0s2S8ryBaGNg4PUL5-56" value="&lt;b&gt;Student_id&lt;/b&gt;" style="text;html=1;align=center;verticalAlign=middle;resizable=0;points=[];autosize=1;strokeColor=none;fillColor=none;container=1;" parent="Tdw0s2S8ryBaGNg4PUL5-45" vertex="1">
          <mxGeometry x="40" y="124.99666666666667" width="90" height="30" as="geometry" />
        </mxCell>
        <mxCell id="Tdw0s2S8ryBaGNg4PUL5-57" value="FK" style="shape=partialRectangle;overflow=hidden;connectable=0;fillColor=none;top=0;left=0;bottom=0;right=0;fontStyle=1;" parent="Tdw0s2S8ryBaGNg4PUL5-45" vertex="1">
          <mxGeometry y="80" width="40" height="40" as="geometry">
            <mxRectangle width="40" height="40" as="alternateBounds" />
          </mxGeometry>
        </mxCell>
        <mxCell id="Tdw0s2S8ryBaGNg4PUL5-58" value="FK" style="shape=partialRectangle;overflow=hidden;connectable=0;fillColor=none;top=0;left=0;bottom=0;right=0;fontStyle=1;" parent="Tdw0s2S8ryBaGNg4PUL5-45" vertex="1">
          <mxGeometry y="120" width="40" height="40" as="geometry">
            <mxRectangle width="40" height="40" as="alternateBounds" />
          </mxGeometry>
        </mxCell>
        <mxCell id="Tdw0s2S8ryBaGNg4PUL5-59" value="FK" style="shape=partialRectangle;overflow=hidden;connectable=0;fillColor=none;top=0;left=0;bottom=0;right=0;fontStyle=1;" parent="Tdw0s2S8ryBaGNg4PUL5-45" vertex="1">
          <mxGeometry y="158.34000000000003" width="40" height="40" as="geometry">
            <mxRectangle width="40" height="40" as="alternateBounds" />
          </mxGeometry>
        </mxCell>
        <mxCell id="Tdw0s2S8ryBaGNg4PUL5-109" value="" style="group" parent="Tdw0s2S8ryBaGNg4PUL5-45" vertex="1" connectable="0">
          <mxGeometry width="200" height="280" as="geometry" />
        </mxCell>
        <mxCell id="Tdw0s2S8ryBaGNg4PUL5-46" value="Invites" style="shape=table;startSize=40;container=1;collapsible=1;childLayout=tableLayout;fixedRows=1;rowLines=0;fontStyle=1;align=center;resizeLast=1;" parent="Tdw0s2S8ryBaGNg4PUL5-109" vertex="1">
          <mxGeometry width="200" height="280" as="geometry" />
        </mxCell>
        <mxCell id="Tdw0s2S8ryBaGNg4PUL5-47" value="" style="shape=partialRectangle;collapsible=0;dropTarget=0;pointerEvents=0;fillColor=none;points=[[0,0.5],[1,0.5]];portConstraint=eastwest;top=0;left=0;right=0;bottom=1;fontStyle=0" parent="Tdw0s2S8ryBaGNg4PUL5-46" vertex="1">
          <mxGeometry y="40" width="200" height="40" as="geometry" />
        </mxCell>
        <mxCell id="Tdw0s2S8ryBaGNg4PUL5-48" value="PK" style="shape=partialRectangle;overflow=hidden;connectable=0;fillColor=none;top=0;left=0;bottom=0;right=0;fontStyle=1;" parent="Tdw0s2S8ryBaGNg4PUL5-47" vertex="1">
          <mxGeometry width="40" height="40" as="geometry">
            <mxRectangle width="40" height="40" as="alternateBounds" />
          </mxGeometry>
        </mxCell>
        <mxCell id="Tdw0s2S8ryBaGNg4PUL5-49" value="Invite_id" style="shape=partialRectangle;overflow=hidden;connectable=0;fillColor=none;top=0;left=0;bottom=0;right=0;align=left;spacingLeft=6;fontStyle=1;strokeColor=default;" parent="Tdw0s2S8ryBaGNg4PUL5-47" vertex="1">
          <mxGeometry x="40" width="160" height="40" as="geometry">
            <mxRectangle width="160" height="40" as="alternateBounds" />
          </mxGeometry>
        </mxCell>
        <mxCell id="Tdw0s2S8ryBaGNg4PUL5-54" value="" style="endArrow=none;html=1;rounded=0;" parent="Tdw0s2S8ryBaGNg4PUL5-109" edge="1">
          <mxGeometry width="50" height="50" relative="1" as="geometry">
            <mxPoint x="40" y="80" as="sourcePoint" />
            <mxPoint x="40" y="280" as="targetPoint" />
          </mxGeometry>
        </mxCell>
        <mxCell id="Tdw0s2S8ryBaGNg4PUL5-98" value="FK" style="shape=partialRectangle;overflow=hidden;connectable=0;fillColor=none;top=0;left=0;bottom=0;right=0;fontStyle=1;" parent="Tdw0s2S8ryBaGNg4PUL5-109" vertex="1">
          <mxGeometry y="80" width="40" height="40" as="geometry">
            <mxRectangle width="40" height="40" as="alternateBounds" />
          </mxGeometry>
        </mxCell>
        <mxCell id="Tdw0s2S8ryBaGNg4PUL5-99" value="&lt;b&gt;Mentor_id&lt;/b&gt;" style="text;html=1;align=center;verticalAlign=middle;resizable=0;points=[];autosize=1;strokeColor=none;fillColor=none;" parent="Tdw0s2S8ryBaGNg4PUL5-109" vertex="1">
          <mxGeometry x="40" y="90" width="80" height="30" as="geometry" />
        </mxCell>
        <mxCell id="Tdw0s2S8ryBaGNg4PUL5-104" value="FK" style="shape=partialRectangle;overflow=hidden;connectable=0;fillColor=none;top=0;left=0;bottom=0;right=0;fontStyle=1;" parent="Tdw0s2S8ryBaGNg4PUL5-109" vertex="1">
          <mxGeometry y="120" width="40" height="40" as="geometry">
            <mxRectangle width="40" height="40" as="alternateBounds" />
          </mxGeometry>
        </mxCell>
        <mxCell id="Tdw0s2S8ryBaGNg4PUL5-105" value="&lt;b&gt;Student_id&lt;/b&gt;" style="text;html=1;align=center;verticalAlign=middle;resizable=0;points=[];autosize=1;strokeColor=none;fillColor=none;container=1;" parent="Tdw0s2S8ryBaGNg4PUL5-109" vertex="1">
          <mxGeometry x="40" y="124.99666666666667" width="90" height="30" as="geometry" />
        </mxCell>
        <mxCell id="Tdw0s2S8ryBaGNg4PUL5-106" value="FK" style="shape=partialRectangle;overflow=hidden;connectable=0;fillColor=none;top=0;left=0;bottom=0;right=0;fontStyle=1;" parent="Tdw0s2S8ryBaGNg4PUL5-109" vertex="1">
          <mxGeometry y="158.34000000000003" width="40" height="40" as="geometry">
            <mxRectangle width="40" height="40" as="alternateBounds" />
          </mxGeometry>
        </mxCell>
        <mxCell id="Tdw0s2S8ryBaGNg4PUL5-107" value="&lt;b&gt;Assessment_id&lt;/b&gt;" style="text;html=1;align=center;verticalAlign=middle;resizable=0;points=[];autosize=1;strokeColor=none;fillColor=none;container=1;" parent="Tdw0s2S8ryBaGNg4PUL5-109" vertex="1">
          <mxGeometry x="40" y="168.3366666666667" width="110" height="30" as="geometry" />
        </mxCell>
        <mxCell id="Tdw0s2S8ryBaGNg4PUL5-110" value="" style="group" parent="Tdw0s2S8ryBaGNg4PUL5-45" vertex="1" connectable="0">
          <mxGeometry width="200" height="285" as="geometry" />
        </mxCell>
        <mxCell id="Tdw0s2S8ryBaGNg4PUL5-100" value="Invites" style="shape=table;startSize=40;container=1;collapsible=1;childLayout=tableLayout;fixedRows=1;rowLines=0;fontStyle=1;align=center;resizeLast=1;" parent="Tdw0s2S8ryBaGNg4PUL5-110" vertex="1">
          <mxGeometry width="200" height="280" as="geometry" />
        </mxCell>
        <mxCell id="Tdw0s2S8ryBaGNg4PUL5-101" value="" style="shape=partialRectangle;collapsible=0;dropTarget=0;pointerEvents=0;fillColor=none;points=[[0,0.5],[1,0.5]];portConstraint=eastwest;top=0;left=0;right=0;bottom=1;fontStyle=0" parent="Tdw0s2S8ryBaGNg4PUL5-100" vertex="1">
          <mxGeometry y="40" width="200" height="40" as="geometry" />
        </mxCell>
        <mxCell id="Tdw0s2S8ryBaGNg4PUL5-102" value="PK" style="shape=partialRectangle;overflow=hidden;connectable=0;fillColor=none;top=0;left=0;bottom=0;right=0;fontStyle=1;" parent="Tdw0s2S8ryBaGNg4PUL5-101" vertex="1">
          <mxGeometry width="40" height="40" as="geometry">
            <mxRectangle width="40" height="40" as="alternateBounds" />
          </mxGeometry>
        </mxCell>
        <mxCell id="Tdw0s2S8ryBaGNg4PUL5-103" value="Invite_id" style="shape=partialRectangle;overflow=hidden;connectable=0;fillColor=none;top=0;left=0;bottom=0;right=0;align=left;spacingLeft=6;fontStyle=1;strokeColor=default;" parent="Tdw0s2S8ryBaGNg4PUL5-101" vertex="1">
          <mxGeometry x="40" width="160" height="40" as="geometry">
            <mxRectangle width="160" height="40" as="alternateBounds" />
          </mxGeometry>
        </mxCell>
        <mxCell id="Tdw0s2S8ryBaGNg4PUL5-60" value="&lt;b&gt;Assessment_id&lt;/b&gt;" style="shape=ext;margin=3;double=1;whiteSpace=wrap;html=1;align=center;strokeColor=default;" parent="1" vertex="1">
          <mxGeometry x="280" y="230" width="160" height="170" as="geometry" />
        </mxCell>
        <mxCell id="Tdw0s2S8ryBaGNg4PUL5-61" value="&lt;b&gt;Assessment_id&lt;/b&gt;" style="shape=ext;margin=3;double=1;whiteSpace=wrap;html=1;align=center;strokeColor=default;" parent="1" vertex="1">
          <mxGeometry x="80" y="230" width="160" height="170" as="geometry" />
        </mxCell>
        <mxCell id="Tdw0s2S8ryBaGNg4PUL5-62" value="&lt;b&gt;Assessment_id&lt;/b&gt;" style="shape=ext;margin=3;double=1;whiteSpace=wrap;html=1;align=center;strokeColor=default;" parent="1" vertex="1">
          <mxGeometry x="-120" y="235" width="160" height="165" as="geometry" />
        </mxCell>
        <mxCell id="Tdw0s2S8ryBaGNg4PUL5-63" value="" style="line;strokeWidth=2;html=1;strokeColor=default;" parent="1" vertex="1">
          <mxGeometry x="-120" y="270" width="160" height="10" as="geometry" />
        </mxCell>
        <mxCell id="Tdw0s2S8ryBaGNg4PUL5-64" value="" style="line;strokeWidth=2;html=1;strokeColor=default;" parent="1" vertex="1">
          <mxGeometry x="80" y="270" width="160" height="10" as="geometry" />
        </mxCell>
        <mxCell id="Tdw0s2S8ryBaGNg4PUL5-65" value="" style="line;strokeWidth=2;html=1;strokeColor=default;" parent="1" vertex="1">
          <mxGeometry x="280" y="270" width="160" height="10" as="geometry" />
        </mxCell>
        <mxCell id="Tdw0s2S8ryBaGNg4PUL5-66" value="" style="line;strokeWidth=2;html=1;strokeColor=default;" parent="1" vertex="1">
          <mxGeometry x="-120" y="300" width="160" height="10" as="geometry" />
        </mxCell>
        <mxCell id="Tdw0s2S8ryBaGNg4PUL5-68" value="" style="line;strokeWidth=2;html=1;strokeColor=default;" parent="1" vertex="1">
          <mxGeometry x="-120" y="330" width="160" height="10" as="geometry" />
        </mxCell>
        <mxCell id="Tdw0s2S8ryBaGNg4PUL5-69" value="&lt;b&gt;MCQs&lt;/b&gt;" style="text;whiteSpace=wrap;html=1;" parent="1" vertex="1">
          <mxGeometry x="-75" y="242.5" width="70" height="25" as="geometry" />
        </mxCell>
        <mxCell id="Tdw0s2S8ryBaGNg4PUL5-70" value="" style="line;strokeWidth=2;html=1;strokeColor=default;" parent="1" vertex="1">
          <mxGeometry x="80" y="300" width="160" height="10" as="geometry" />
        </mxCell>
        <mxCell id="Tdw0s2S8ryBaGNg4PUL5-71" value="" style="line;strokeWidth=2;html=1;strokeColor=default;" parent="1" vertex="1">
          <mxGeometry x="80" y="330" width="160" height="10" as="geometry" />
        </mxCell>
        <mxCell id="Tdw0s2S8ryBaGNg4PUL5-72" value="" style="line;strokeWidth=2;html=1;strokeColor=default;" parent="1" vertex="1">
          <mxGeometry x="280" y="330" width="160" height="10" as="geometry" />
        </mxCell>
        <mxCell id="Tdw0s2S8ryBaGNg4PUL5-73" value="" style="line;strokeWidth=2;html=1;strokeColor=default;" parent="1" vertex="1">
          <mxGeometry x="280" y="300" width="160" height="10" as="geometry" />
        </mxCell>
        <mxCell id="Tdw0s2S8ryBaGNg4PUL5-74" value="" style="line;strokeWidth=2;direction=south;html=1;strokeColor=default;" parent="1" vertex="1">
          <mxGeometry x="-90" y="275" width="10" height="60" as="geometry" />
        </mxCell>
        <mxCell id="Tdw0s2S8ryBaGNg4PUL5-75" value="" style="line;strokeWidth=2;direction=south;html=1;strokeColor=default;" parent="1" vertex="1">
          <mxGeometry x="110" y="275" width="10" height="60" as="geometry" />
        </mxCell>
        <mxCell id="Tdw0s2S8ryBaGNg4PUL5-77" value="&lt;b&gt;KATAs&lt;/b&gt;" style="text;html=1;strokeColor=none;fillColor=none;align=center;verticalAlign=middle;whiteSpace=wrap;rounded=0;" parent="1" vertex="1">
          <mxGeometry x="120" y="240" width="60" height="30" as="geometry" />
        </mxCell>
        <mxCell id="Tdw0s2S8ryBaGNg4PUL5-78" value="&lt;b&gt;PROs&lt;/b&gt;" style="text;html=1;strokeColor=none;fillColor=none;align=center;verticalAlign=middle;whiteSpace=wrap;rounded=0;" parent="1" vertex="1">
          <mxGeometry x="330" y="245" width="60" height="30" as="geometry" />
        </mxCell>
        <mxCell id="Tdw0s2S8ryBaGNg4PUL5-80" value="" style="line;strokeWidth=2;direction=south;html=1;strokeColor=default;" parent="1" vertex="1">
          <mxGeometry x="310" y="275" width="10" height="60" as="geometry" />
        </mxCell>
        <mxCell id="Tdw0s2S8ryBaGNg4PUL5-81" value="&lt;b&gt;PK&lt;/b&gt;" style="text;html=1;strokeColor=none;fillColor=none;align=center;verticalAlign=middle;whiteSpace=wrap;rounded=0;" parent="1" vertex="1">
          <mxGeometry x="-110" y="275" width="20" height="30" as="geometry" />
        </mxCell>
        <mxCell id="Tdw0s2S8ryBaGNg4PUL5-82" value="&lt;b&gt;FK&lt;/b&gt;" style="text;html=1;strokeColor=none;fillColor=none;align=center;verticalAlign=middle;whiteSpace=wrap;rounded=0;" parent="1" vertex="1">
          <mxGeometry x="-110" y="305" width="20" height="30" as="geometry" />
        </mxCell>
        <mxCell id="Tdw0s2S8ryBaGNg4PUL5-83" value="&lt;b&gt;FK&lt;/b&gt;" style="text;html=1;strokeColor=none;fillColor=none;align=center;verticalAlign=middle;whiteSpace=wrap;rounded=0;" parent="1" vertex="1">
          <mxGeometry x="90" y="305" width="20" height="30" as="geometry" />
        </mxCell>
        <mxCell id="Tdw0s2S8ryBaGNg4PUL5-84" value="&lt;b&gt;FK&lt;/b&gt;" style="text;html=1;strokeColor=none;fillColor=none;align=center;verticalAlign=middle;whiteSpace=wrap;rounded=0;" parent="1" vertex="1">
          <mxGeometry x="290" y="305" width="20" height="30" as="geometry" />
        </mxCell>
        <mxCell id="Tdw0s2S8ryBaGNg4PUL5-85" value="&lt;b&gt;PK&lt;/b&gt;" style="text;html=1;strokeColor=none;fillColor=none;align=center;verticalAlign=middle;whiteSpace=wrap;rounded=0;" parent="1" vertex="1">
          <mxGeometry x="90" y="275" width="20" height="30" as="geometry" />
        </mxCell>
        <mxCell id="Tdw0s2S8ryBaGNg4PUL5-86" value="&lt;b&gt;PK&lt;/b&gt;" style="text;html=1;strokeColor=none;fillColor=none;align=center;verticalAlign=middle;whiteSpace=wrap;rounded=0;" parent="1" vertex="1">
          <mxGeometry x="290" y="275" width="20" height="30" as="geometry" />
        </mxCell>
        <mxCell id="Tdw0s2S8ryBaGNg4PUL5-87" value="Question" style="text;html=1;strokeColor=none;fillColor=none;align=center;verticalAlign=middle;whiteSpace=wrap;rounded=0;" parent="1" vertex="1">
          <mxGeometry x="-80" y="330" width="60" height="30" as="geometry" />
        </mxCell>
        <mxCell id="Tdw0s2S8ryBaGNg4PUL5-88" value="Question" style="text;html=1;strokeColor=none;fillColor=none;align=center;verticalAlign=middle;whiteSpace=wrap;rounded=0;" parent="1" vertex="1">
          <mxGeometry x="120" y="335" width="60" height="15" as="geometry" />
        </mxCell>
        <mxCell id="Tdw0s2S8ryBaGNg4PUL5-89" value="Question" style="text;html=1;strokeColor=none;fillColor=none;align=center;verticalAlign=middle;whiteSpace=wrap;rounded=0;" parent="1" vertex="1">
          <mxGeometry x="320" y="335" width="60" height="15" as="geometry" />
        </mxCell>
        <mxCell id="Tdw0s2S8ryBaGNg4PUL5-90" value="" style="line;strokeWidth=2;html=1;strokeColor=default;" parent="1" vertex="1">
          <mxGeometry x="-120" y="350" width="160" height="10" as="geometry" />
        </mxCell>
        <mxCell id="Tdw0s2S8ryBaGNg4PUL5-91" value="" style="line;strokeWidth=2;html=1;strokeColor=default;" parent="1" vertex="1">
          <mxGeometry x="-120" y="370" width="160" height="10" as="geometry" />
        </mxCell>
        <mxCell id="Tdw0s2S8ryBaGNg4PUL5-92" value="is_right?" style="text;html=1;strokeColor=none;fillColor=none;align=center;verticalAlign=middle;whiteSpace=wrap;rounded=0;" parent="1" vertex="1">
          <mxGeometry x="-80" y="350" width="60" height="30" as="geometry" />
        </mxCell>
        <mxCell id="Tdw0s2S8ryBaGNg4PUL5-93" value="Response" style="text;html=1;strokeColor=none;fillColor=none;align=center;verticalAlign=middle;whiteSpace=wrap;rounded=0;" parent="1" vertex="1">
          <mxGeometry x="-80" y="370" width="60" height="30" as="geometry" />
        </mxCell>
        <mxCell id="Tdw0s2S8ryBaGNg4PUL5-94" value="" style="line;strokeWidth=2;html=1;strokeColor=default;" parent="1" vertex="1">
          <mxGeometry x="80" y="360" width="160" height="10" as="geometry" />
        </mxCell>
        <mxCell id="Tdw0s2S8ryBaGNg4PUL5-95" value="" style="line;strokeWidth=2;html=1;strokeColor=default;" parent="1" vertex="1">
          <mxGeometry x="280" y="360" width="160" height="10" as="geometry" />
        </mxCell>
        <mxCell id="Tdw0s2S8ryBaGNg4PUL5-96" value="Instructions" style="text;html=1;strokeColor=none;fillColor=none;align=center;verticalAlign=middle;whiteSpace=wrap;rounded=0;" parent="1" vertex="1">
          <mxGeometry x="120" y="370" width="60" height="15" as="geometry" />
        </mxCell>
        <mxCell id="Tdw0s2S8ryBaGNg4PUL5-97" value="Instructions" style="text;html=1;strokeColor=none;fillColor=none;align=center;verticalAlign=middle;whiteSpace=wrap;rounded=0;" parent="1" vertex="1">
          <mxGeometry x="320" y="370" width="60" height="15" as="geometry" />
        </mxCell>
        <mxCell id="Tdw0s2S8ryBaGNg4PUL5-140" value="" style="group" parent="1" vertex="1" connectable="0">
          <mxGeometry x="680" y="280" width="200" height="280" as="geometry" />
        </mxCell>
        <mxCell id="Tdw0s2S8ryBaGNg4PUL5-145" value="&lt;b&gt;Invite_id&lt;/b&gt;" style="text;html=1;align=center;verticalAlign=middle;resizable=0;points=[];autosize=1;strokeColor=none;fillColor=none;" parent="Tdw0s2S8ryBaGNg4PUL5-140" vertex="1">
          <mxGeometry x="40" y="90" width="70" height="30" as="geometry" />
        </mxCell>
        <mxCell id="Tdw0s2S8ryBaGNg4PUL5-146" value="&lt;b&gt;Question_id&lt;/b&gt;" style="text;html=1;align=center;verticalAlign=middle;resizable=0;points=[];autosize=1;strokeColor=none;fillColor=none;container=1;" parent="Tdw0s2S8ryBaGNg4PUL5-140" vertex="1">
          <mxGeometry x="40" y="129.99666666666667" width="90" height="30" as="geometry" />
        </mxCell>
        <mxCell id="Tdw0s2S8ryBaGNg4PUL5-147" value="Response" style="text;html=1;align=center;verticalAlign=middle;resizable=0;points=[];autosize=1;strokeColor=none;fillColor=none;" parent="Tdw0s2S8ryBaGNg4PUL5-140" vertex="1">
          <mxGeometry x="40" y="170.00333333333333" width="80" height="30" as="geometry" />
        </mxCell>
        <mxCell id="Tdw0s2S8ryBaGNg4PUL5-160" value="FK" style="shape=partialRectangle;overflow=hidden;connectable=0;fillColor=none;top=0;left=0;bottom=0;right=0;fontStyle=1;" parent="Tdw0s2S8ryBaGNg4PUL5-140" vertex="1">
          <mxGeometry y="80" width="40" height="40" as="geometry">
            <mxRectangle width="40" height="40" as="alternateBounds" />
          </mxGeometry>
        </mxCell>
        <mxCell id="Tdw0s2S8ryBaGNg4PUL5-161" value="FK" style="shape=partialRectangle;overflow=hidden;connectable=0;fillColor=none;top=0;left=0;bottom=0;right=0;fontStyle=1;" parent="Tdw0s2S8ryBaGNg4PUL5-140" vertex="1">
          <mxGeometry y="120" width="40" height="40" as="geometry">
            <mxRectangle width="40" height="40" as="alternateBounds" />
          </mxGeometry>
        </mxCell>
        <mxCell id="Tdw0s2S8ryBaGNg4PUL5-182" value="" style="group" parent="Tdw0s2S8ryBaGNg4PUL5-140" vertex="1" connectable="0">
          <mxGeometry width="200" height="280" as="geometry" />
        </mxCell>
        <mxCell id="Tdw0s2S8ryBaGNg4PUL5-141" value="Responses" style="shape=table;startSize=40;container=1;collapsible=1;childLayout=tableLayout;fixedRows=1;rowLines=0;fontStyle=1;align=center;resizeLast=1;" parent="Tdw0s2S8ryBaGNg4PUL5-182" vertex="1">
          <mxGeometry width="200" height="280" as="geometry" />
        </mxCell>
        <mxCell id="Tdw0s2S8ryBaGNg4PUL5-142" value="" style="shape=partialRectangle;collapsible=0;dropTarget=0;pointerEvents=0;fillColor=none;points=[[0,0.5],[1,0.5]];portConstraint=eastwest;top=0;left=0;right=0;bottom=1;fontStyle=0" parent="Tdw0s2S8ryBaGNg4PUL5-141" vertex="1">
          <mxGeometry y="40" width="200" height="40" as="geometry" />
        </mxCell>
        <mxCell id="Tdw0s2S8ryBaGNg4PUL5-143" value="PK" style="shape=partialRectangle;overflow=hidden;connectable=0;fillColor=none;top=0;left=0;bottom=0;right=0;fontStyle=1;" parent="Tdw0s2S8ryBaGNg4PUL5-142" vertex="1">
          <mxGeometry width="40" height="40" as="geometry">
            <mxRectangle width="40" height="40" as="alternateBounds" />
          </mxGeometry>
        </mxCell>
        <mxCell id="Tdw0s2S8ryBaGNg4PUL5-144" value="Response_id" style="shape=partialRectangle;overflow=hidden;connectable=0;fillColor=none;top=0;left=0;bottom=0;right=0;align=left;spacingLeft=6;fontStyle=1;strokeColor=default;" parent="Tdw0s2S8ryBaGNg4PUL5-142" vertex="1">
          <mxGeometry x="40" width="160" height="40" as="geometry">
            <mxRectangle width="160" height="40" as="alternateBounds" />
          </mxGeometry>
        </mxCell>
        <mxCell id="Tdw0s2S8ryBaGNg4PUL5-150" value="" style="endArrow=none;html=1;rounded=0;" parent="Tdw0s2S8ryBaGNg4PUL5-182" edge="1">
          <mxGeometry width="50" height="50" relative="1" as="geometry">
            <mxPoint x="41" y="280" as="sourcePoint" />
            <mxPoint x="40" y="80" as="targetPoint" />
          </mxGeometry>
        </mxCell>
        <mxCell id="Tdw0s2S8ryBaGNg4PUL5-178" value="Response" style="text;html=1;align=center;verticalAlign=middle;resizable=0;points=[];autosize=1;strokeColor=none;fillColor=none;" parent="Tdw0s2S8ryBaGNg4PUL5-182" vertex="1">
          <mxGeometry x="40" y="170.00333333333333" width="80" height="30" as="geometry" />
        </mxCell>
        <mxCell id="Tdw0s2S8ryBaGNg4PUL5-179" value="&lt;b&gt;Question_id&lt;/b&gt;" style="text;html=1;align=center;verticalAlign=middle;resizable=0;points=[];autosize=1;strokeColor=none;fillColor=none;container=1;" parent="Tdw0s2S8ryBaGNg4PUL5-182" vertex="1">
          <mxGeometry x="40" y="129.99666666666667" width="90" height="30" as="geometry" />
        </mxCell>
        <mxCell id="Tdw0s2S8ryBaGNg4PUL5-180" value="&lt;b&gt;Invite_id&lt;/b&gt;" style="text;html=1;align=center;verticalAlign=middle;resizable=0;points=[];autosize=1;strokeColor=none;fillColor=none;" parent="Tdw0s2S8ryBaGNg4PUL5-182" vertex="1">
          <mxGeometry x="40" y="90" width="70" height="30" as="geometry" />
        </mxCell>
        <mxCell id="Tdw0s2S8ryBaGNg4PUL5-181" value="FK" style="shape=partialRectangle;overflow=hidden;connectable=0;fillColor=none;top=0;left=0;bottom=0;right=0;fontStyle=1;" parent="Tdw0s2S8ryBaGNg4PUL5-182" vertex="1">
          <mxGeometry y="80" width="40" height="40" as="geometry">
            <mxRectangle width="40" height="40" as="alternateBounds" />
          </mxGeometry>
        </mxCell>
        <mxCell id="Tdw0s2S8ryBaGNg4PUL5-185" value="" style="group" parent="1" vertex="1" connectable="0">
          <mxGeometry x="85" y="440" width="150" height="90" as="geometry" />
        </mxCell>
        <mxCell id="Tdw0s2S8ryBaGNg4PUL5-162" value="" style="html=1;whiteSpace=wrap;aspect=fixed;shape=isoRectangle;strokeColor=default;" parent="Tdw0s2S8ryBaGNg4PUL5-185" vertex="1">
          <mxGeometry width="150" height="90" as="geometry" />
        </mxCell>
        <mxCell id="Tdw0s2S8ryBaGNg4PUL5-164" value="&lt;div&gt;Published&lt;/div&gt;&lt;div&gt;Ready for Invite?&lt;br&gt;&lt;/div&gt;" style="text;html=1;strokeColor=none;fillColor=none;align=center;verticalAlign=middle;whiteSpace=wrap;rounded=0;" parent="Tdw0s2S8ryBaGNg4PUL5-185" vertex="1">
          <mxGeometry x="45" y="30" width="60" height="30" as="geometry" />
        </mxCell>
        <mxCell id="Tdw0s2S8ryBaGNg4PUL5-186" value="Attempts" style="shape=rhombus;perimeter=rhombusPerimeter;whiteSpace=wrap;html=1;align=center;strokeColor=default;" parent="1" vertex="1">
          <mxGeometry x="740" y="120" width="120" height="80" as="geometry" />
        </mxCell>
        <mxCell id="Tdw0s2S8ryBaGNg4PUL5-197" value="" style="endArrow=ERmany;html=1;rounded=0;sketch=0;endFill=0;entryX=-0.004;entryY=0.993;entryDx=0;entryDy=0;entryPerimeter=0;" parent="1" source="Tdw0s2S8ryBaGNg4PUL5-35" target="C-vyLk0tnHw3VtMMgP7b-14" edge="1">
          <mxGeometry width="50" height="50" relative="1" as="geometry">
            <mxPoint x="-10" y="50" as="sourcePoint" />
            <mxPoint x="40" as="targetPoint" />
          </mxGeometry>
        </mxCell>
        <mxCell id="Tdw0s2S8ryBaGNg4PUL5-198" value="" style="endArrow=none;html=1;rounded=0;sketch=0;entryX=0;entryY=0.5;entryDx=0;entryDy=0;" parent="1" target="Tdw0s2S8ryBaGNg4PUL5-35" edge="1">
          <mxGeometry width="50" height="50" relative="1" as="geometry">
            <mxPoint x="-80" y="-40" as="sourcePoint" />
            <mxPoint x="-30" y="-90" as="targetPoint" />
          </mxGeometry>
        </mxCell>
        <mxCell id="Tdw0s2S8ryBaGNg4PUL5-199" value="" style="endArrow=ERoneToMany;html=1;rounded=0;sketch=0;exitX=0.5;exitY=0;exitDx=0;exitDy=0;endFill=0;" parent="1" source="Tdw0s2S8ryBaGNg4PUL5-37" edge="1">
          <mxGeometry width="50" height="50" relative="1" as="geometry">
            <mxPoint x="130" y="80" as="sourcePoint" />
            <mxPoint x="160" y="40" as="targetPoint" />
          </mxGeometry>
        </mxCell>
        <mxCell id="Tdw0s2S8ryBaGNg4PUL5-200" value="" style="endArrow=none;html=1;rounded=0;sketch=0;entryX=0.5;entryY=1;entryDx=0;entryDy=0;" parent="1" target="Tdw0s2S8ryBaGNg4PUL5-37" edge="1">
          <mxGeometry width="50" height="50" relative="1" as="geometry">
            <mxPoint x="160" y="200" as="sourcePoint" />
            <mxPoint x="180" y="170" as="targetPoint" />
          </mxGeometry>
        </mxCell>
        <mxCell id="Tdw0s2S8ryBaGNg4PUL5-202" value="&lt;b&gt;Mcq_id&lt;/b&gt;" style="text;html=1;strokeColor=none;fillColor=none;align=center;verticalAlign=middle;whiteSpace=wrap;rounded=0;" parent="1" vertex="1">
          <mxGeometry x="-70" y="275" width="60" height="30" as="geometry" />
        </mxCell>
        <mxCell id="Tdw0s2S8ryBaGNg4PUL5-212" value="Response" style="text;html=1;strokeColor=none;fillColor=none;align=center;verticalAlign=middle;whiteSpace=wrap;rounded=0;" parent="1" vertex="1">
          <mxGeometry x="-80" y="370" width="60" height="30" as="geometry" />
        </mxCell>
        <mxCell id="Tdw0s2S8ryBaGNg4PUL5-213" value="is_right?" style="text;html=1;strokeColor=none;fillColor=none;align=center;verticalAlign=middle;whiteSpace=wrap;rounded=0;" parent="1" vertex="1">
          <mxGeometry x="-80" y="350" width="60" height="30" as="geometry" />
        </mxCell>
        <mxCell id="Tdw0s2S8ryBaGNg4PUL5-214" value="Question" style="text;html=1;strokeColor=none;fillColor=none;align=center;verticalAlign=middle;whiteSpace=wrap;rounded=0;" parent="1" vertex="1">
          <mxGeometry x="-80" y="330" width="60" height="30" as="geometry" />
        </mxCell>
        <mxCell id="Tdw0s2S8ryBaGNg4PUL5-216" value="&lt;b&gt;Kata_id&lt;/b&gt;" style="text;html=1;strokeColor=none;fillColor=none;align=center;verticalAlign=middle;whiteSpace=wrap;rounded=0;" parent="1" vertex="1">
          <mxGeometry x="130" y="275" width="60" height="30" as="geometry" />
        </mxCell>
        <mxCell id="Tdw0s2S8ryBaGNg4PUL5-217" value="&lt;b&gt;prose_id&lt;/b&gt;" style="text;html=1;strokeColor=none;fillColor=none;align=center;verticalAlign=middle;whiteSpace=wrap;rounded=0;" parent="1" vertex="1">
          <mxGeometry x="330" y="275" width="60" height="30" as="geometry" />
        </mxCell>
        <mxCell id="Tdw0s2S8ryBaGNg4PUL5-219" value="" style="endArrow=ERoneToMany;html=1;rounded=0;sketch=0;entryX=0;entryY=0.5;entryDx=0;entryDy=0;endFill=0;" parent="1" target="Tdw0s2S8ryBaGNg4PUL5-36" edge="1">
          <mxGeometry width="50" height="50" relative="1" as="geometry">
            <mxPoint x="280" y="-40" as="sourcePoint" />
            <mxPoint x="80" y="130" as="targetPoint" />
          </mxGeometry>
        </mxCell>
        <mxCell id="Tdw0s2S8ryBaGNg4PUL5-220" value="" style="endArrow=ERzeroToMany;html=1;rounded=0;sketch=0;exitX=1;exitY=0.5;exitDx=0;exitDy=0;endFill=0;" parent="1" source="Tdw0s2S8ryBaGNg4PUL5-36" edge="1">
          <mxGeometry width="50" height="50" relative="1" as="geometry">
            <mxPoint x="30" y="180" as="sourcePoint" />
            <mxPoint x="440" y="-40" as="targetPoint" />
          </mxGeometry>
        </mxCell>
        <mxCell id="Tdw0s2S8ryBaGNg4PUL5-221" value="" style="endArrow=none;html=1;rounded=0;sketch=0;" parent="1" edge="1">
          <mxGeometry width="50" height="50" relative="1" as="geometry">
            <mxPoint x="-40" y="200" as="sourcePoint" />
            <mxPoint x="360" y="200" as="targetPoint" />
          </mxGeometry>
        </mxCell>
        <mxCell id="Tdw0s2S8ryBaGNg4PUL5-222" value="" style="endArrow=none;html=1;rounded=0;sketch=0;startArrow=ERzeroToMany;startFill=0;" parent="1" edge="1">
          <mxGeometry width="50" height="50" relative="1" as="geometry">
            <mxPoint x="160" y="230" as="sourcePoint" />
            <mxPoint x="160" y="200" as="targetPoint" />
          </mxGeometry>
        </mxCell>
        <mxCell id="Tdw0s2S8ryBaGNg4PUL5-223" value="" style="endArrow=none;html=1;rounded=0;sketch=0;exitX=0.5;exitY=0;exitDx=0;exitDy=0;startArrow=ERzeroToMany;startFill=0;" parent="1" source="Tdw0s2S8ryBaGNg4PUL5-62" edge="1">
          <mxGeometry width="50" height="50" relative="1" as="geometry">
            <mxPoint x="-40" y="230" as="sourcePoint" />
            <mxPoint x="-40" y="200" as="targetPoint" />
          </mxGeometry>
        </mxCell>
        <mxCell id="Tdw0s2S8ryBaGNg4PUL5-224" value="" style="endArrow=none;html=1;rounded=0;sketch=0;exitX=0.5;exitY=0;exitDx=0;exitDy=0;startArrow=ERzeroToMany;startFill=0;" parent="1" source="Tdw0s2S8ryBaGNg4PUL5-60" edge="1">
          <mxGeometry width="50" height="50" relative="1" as="geometry">
            <mxPoint x="140" y="210" as="sourcePoint" />
            <mxPoint x="360" y="200" as="targetPoint" />
          </mxGeometry>
        </mxCell>
        <mxCell id="Tdw0s2S8ryBaGNg4PUL5-225" value="" style="endArrow=none;html=1;rounded=0;sketch=0;exitX=0.499;exitY=0.038;exitDx=0;exitDy=0;exitPerimeter=0;entryX=0.5;entryY=1;entryDx=0;entryDy=0;" parent="1" source="Tdw0s2S8ryBaGNg4PUL5-162" target="Tdw0s2S8ryBaGNg4PUL5-61" edge="1">
          <mxGeometry width="50" height="50" relative="1" as="geometry">
            <mxPoint x="140" y="350" as="sourcePoint" />
            <mxPoint x="190" y="300" as="targetPoint" />
            <Array as="points">
              <mxPoint x="160" y="420" />
            </Array>
          </mxGeometry>
        </mxCell>
        <mxCell id="Tdw0s2S8ryBaGNg4PUL5-226" value="" style="endArrow=none;html=1;rounded=0;sketch=0;" parent="1" edge="1">
          <mxGeometry width="50" height="50" relative="1" as="geometry">
            <mxPoint x="-40" y="420" as="sourcePoint" />
            <mxPoint x="360" y="420" as="targetPoint" />
          </mxGeometry>
        </mxCell>
        <mxCell id="Tdw0s2S8ryBaGNg4PUL5-227" value="" style="endArrow=none;html=1;rounded=0;sketch=0;" parent="1" edge="1">
          <mxGeometry width="50" height="50" relative="1" as="geometry">
            <mxPoint x="-40" y="420" as="sourcePoint" />
            <mxPoint x="-40" y="400" as="targetPoint" />
          </mxGeometry>
        </mxCell>
        <mxCell id="Tdw0s2S8ryBaGNg4PUL5-228" value="" style="endArrow=none;html=1;rounded=0;sketch=0;" parent="1" edge="1">
          <mxGeometry width="50" height="50" relative="1" as="geometry">
            <mxPoint x="360" y="420" as="sourcePoint" />
            <mxPoint x="360" y="400" as="targetPoint" />
          </mxGeometry>
        </mxCell>
        <mxCell id="Tdw0s2S8ryBaGNg4PUL5-229" value="" style="endArrow=none;html=1;rounded=0;sketch=0;entryX=0.5;entryY=1;entryDx=0;entryDy=0;edgeStyle=elbowEdgeStyle;" parent="1" target="Tdw0s2S8ryBaGNg4PUL5-35" edge="1">
          <mxGeometry width="50" height="50" relative="1" as="geometry">
            <mxPoint x="-200" y="160" as="sourcePoint" />
            <mxPoint x="60" y="80" as="targetPoint" />
            <Array as="points">
              <mxPoint y="170" />
            </Array>
          </mxGeometry>
        </mxCell>
        <mxCell id="Tdw0s2S8ryBaGNg4PUL5-230" value="" style="endArrow=none;html=1;rounded=0;sketch=0;" parent="1" edge="1">
          <mxGeometry width="50" height="50" relative="1" as="geometry">
            <mxPoint x="-200" y="490" as="sourcePoint" />
            <mxPoint x="-200" y="160" as="targetPoint" />
          </mxGeometry>
        </mxCell>
        <mxCell id="Tdw0s2S8ryBaGNg4PUL5-231" value="" style="endArrow=ERoneToMany;html=1;rounded=0;sketch=0;entryX=-0.002;entryY=0.528;entryDx=0;entryDy=0;entryPerimeter=0;endFill=0;" parent="1" target="Tdw0s2S8ryBaGNg4PUL5-162" edge="1">
          <mxGeometry width="50" height="50" relative="1" as="geometry">
            <mxPoint x="-200" y="490" as="sourcePoint" />
            <mxPoint x="80" y="490" as="targetPoint" />
          </mxGeometry>
        </mxCell>
        <mxCell id="Tdw0s2S8ryBaGNg4PUL5-232" value="" style="endArrow=ERzeroToMany;html=1;rounded=0;sketch=0;exitX=0.5;exitY=0;exitDx=0;exitDy=0;endFill=0;entryX=0.508;entryY=0.934;entryDx=0;entryDy=0;entryPerimeter=0;" parent="1" source="Tdw0s2S8ryBaGNg4PUL5-100" target="Tdw0s2S8ryBaGNg4PUL5-162" edge="1">
          <mxGeometry width="50" height="50" relative="1" as="geometry">
            <mxPoint x="10" y="590" as="sourcePoint" />
            <mxPoint x="160" y="530" as="targetPoint" />
          </mxGeometry>
        </mxCell>
        <mxCell id="Tdw0s2S8ryBaGNg4PUL5-236" value="Sent" style="shape=rhombus;perimeter=rhombusPerimeter;whiteSpace=wrap;html=1;align=center;strokeColor=default;" parent="1" vertex="1">
          <mxGeometry x="460" y="650" width="120" height="60" as="geometry" />
        </mxCell>
        <mxCell id="Tdw0s2S8ryBaGNg4PUL5-237" value="" style="endArrow=ERoneToMany;html=1;rounded=0;sketch=0;entryX=0;entryY=0.5;entryDx=0;entryDy=0;endFill=0;" parent="1" target="Tdw0s2S8ryBaGNg4PUL5-236" edge="1">
          <mxGeometry width="50" height="50" relative="1" as="geometry">
            <mxPoint x="260" y="680" as="sourcePoint" />
            <mxPoint x="320" y="640" as="targetPoint" />
          </mxGeometry>
        </mxCell>
        <mxCell id="Tdw0s2S8ryBaGNg4PUL5-238" value="" style="endArrow=ERzeroToMany;html=1;rounded=0;sketch=0;endFill=0;" parent="1" edge="1">
          <mxGeometry width="50" height="50" relative="1" as="geometry">
            <mxPoint x="520" y="650" as="sourcePoint" />
            <mxPoint x="520" y="120" as="targetPoint" />
          </mxGeometry>
        </mxCell>
        <mxCell id="Tdw0s2S8ryBaGNg4PUL5-239" value="" style="endArrow=none;html=1;rounded=0;sketch=0;entryX=1;entryY=0.5;entryDx=0;entryDy=0;exitX=0;exitY=0.5;exitDx=0;exitDy=0;" parent="1" source="Tdw0s2S8ryBaGNg4PUL5-186" target="Tdw0s2S8ryBaGNg4PUL5-236" edge="1">
          <mxGeometry width="50" height="50" relative="1" as="geometry">
            <mxPoint x="600" y="180" as="sourcePoint" />
            <mxPoint x="410" y="630" as="targetPoint" />
            <Array as="points">
              <mxPoint x="600" y="160" />
              <mxPoint x="600" y="420" />
              <mxPoint x="600" y="680" />
            </Array>
          </mxGeometry>
        </mxCell>
        <mxCell id="Tdw0s2S8ryBaGNg4PUL5-240" value="" style="endArrow=ERmany;html=1;rounded=0;sketch=0;entryX=0.5;entryY=1;entryDx=0;entryDy=0;endFill=0;" parent="1" target="Tdw0s2S8ryBaGNg4PUL5-186" edge="1">
          <mxGeometry width="50" height="50" relative="1" as="geometry">
            <mxPoint x="800" y="280" as="sourcePoint" />
            <mxPoint x="410" y="290" as="targetPoint" />
          </mxGeometry>
        </mxCell>
        <mxCell id="1sMSFop2XU6sXHuKmaAd-2" value="" style="endArrow=none;html=1;rounded=0;exitX=0.5;exitY=0;exitDx=0;exitDy=0;entryX=0.5;entryY=0;entryDx=0;entryDy=0;" edge="1" parent="1" source="Tdw0s2S8ryBaGNg4PUL5-36" target="Tdw0s2S8ryBaGNg4PUL5-186">
          <mxGeometry width="50" height="50" relative="1" as="geometry">
            <mxPoint x="360" y="-80" as="sourcePoint" />
            <mxPoint x="800" y="-200" as="targetPoint" />
            <Array as="points">
              <mxPoint x="360" y="-200" />
              <mxPoint x="800" y="-200" />
            </Array>
          </mxGeometry>
        </mxCell>
      </root>
    </mxGraphModel>
  </diagram>
</mxfile>
=======
<mxfile host="app.diagrams.net" modified="2022-10-18T11:58:10.803Z" agent="5.0 (Windows)" etag="m28bQBQr_p8kQs9fw8YR" version="20.4.1" type="github"><diagram id="R2lEEEUBdFMjLlhIrx00" name="Page-1">7Vttb5s6GP01SHcfVoEJSfuxYckmLbmr2m77eOWCA9YIRsZ526+fDTaEOGlhd2m8JlLUwMMTg59zfGyfJpbrz9cfKcziKQlRYgE7XFvuBwsABwCXv4nIpowMbgZlIKI4lEl14AH/RDJoy+gChyhvJDJCEoazZjAgaYoC1ohBSsmqmTYjSfOuGYyQFngIYKJHv+OQxWX02rPr+CeEo1jd2bHllTlUyTKQxzAkq0YIrdmYpEw+4h2ic5iilPErU0h/IGp5o5gx0dNbC4z5ayayryJCogTBDOdXAZnzcJDzlPEMznEiyrzV0FA2xG/njizXp4Sw8mi+9lEisFIwlM80PnC1qgMV7bb4gP9+uZn8sFn6aeV+Y9NpdDd4ei9bWcJkIesra8M2quAo5PWXp/xWmG3uUQIZJumovjJEaXgr0OVJo/ufiJJHMoUp7/wwZ5Cy+hpJZfoY88dzPzgqRZ7b/FzvmnzOnCxogJ7pD+hJSkIaIfZMYl8CHjbYJiv3EZE5YnTDE1Y1xyomxdv8UkFaFGXZZCmUTIqqBqt73BFcEEsOTLcn21HDUlFSNVF2XX5qG+adhno7DfV3GypLozXED7Y6XocKFnVhFHhjlHJbMsoZGEapnt1kgnP9u5TqNxsCtveqlNIZ9YWGiOYar7iiZ+KQwaeCQQUJ5BTmChbwSYlBnHL9LVkSkCSBWY6L9DIS4yScwA1ZMNWQOhvO8BqF9+UMJnI5/ya8sVxSTMwFitXiMkxwlPLjgFNO3HFIUc6fZQJzJjMOknKJKEPrZ1mksPF2QFbDfYtlwNvHMtc+TKgGgl3hcl8WAAUU7zrDMLnnCwWYRgVmTUhEXUNKskc1+kQgE0RDdLRE5VRdFJ8PdZ8kRCCbloJQpBWd84b8xbvr21ee5fEH8Pm5U5/zl0inzCdpzijEBRyIA7VCAqwhI5m8T4Jm6jGoLKY4fiKM8Zn/EKzP0vplrCW2bktoj4ZsT0P27nMXbAnv6ywpVDvGYYjSckiKdSKs8d4D5d76VzXfBWN3ILbEw22NxxYA7mvW39PqT4QQ/sc/5APr1i5V+98vj+Lv18nEqpa6JsGjdLHMHeYZDHAaTcpP9nfw846B39o6OJ7Aa+LZP2el3L8q+zNK2T+1Ug40ZMefnS7gvtJYbAlAvzUAp5LGa63gwSLnfS7VEeyRRuOweFEX/zhYpujgzUUHj6ODN6fWQeUa/ia0ZqngTevyn0oFHd3PK1eIIWSIx+XbWchge7RMkUFH3zk/xDibF6J18To0rwNct5S343kdjr4lPqOpq8Pm2mm/OzPF7XD07fZbsjsq6ho8nekb5FwK4sXz6AqiMbOcvjc+I8nssNzsLpkntz0cfRv+V/seFVcN1kh981yZwmdle3TAyhQpBP9vd3yRQoOdD6BvxQ0cfC3rXxHVXB1U5d23VjxD96MDYsaooW5/+NLDv9gf1tZXOzp/1cM+GmQX+6PlcPz77A/wtu0PYL79AXT746V/ap6T99EBQWOmuIv3cSy9PLn3AXTvw8DB2Lb+5hsfQDc+KnVM4Vys9IMY0n88+93ZLPpNskD4af3jlvKr4PUvktzRLw==</diagram></mxfile>
>>>>>>> development
